<svg width="45" height="45" viewBox="0 0 45 45" fill="none" xmlns="http://www.w3.org/2000/svg">
<path d="M5.15604 35.4043C3.41775 35.4043 2 33.9866 2 32.2483V10.156C2 8.41775 3.41775 7 5.15604 7H31.9824C32.981 7 33.9056 7.46848 34.5097 8.25749L42.3998 18.7858C42.8066 19.3283 43.0285 19.994 43.0285 20.6721V32.2483C43.0285 33.9866 41.6107 35.4043 39.8725 35.4043H36.7164" stroke="#212806" stroke-width="3" stroke-miterlimit="10"/>
<path d="M24.0923 7.39453V16.4681C24.0923 18.2064 25.51 19.6242 27.2483 19.6242H43.0285" stroke="#212806" stroke-width="3" stroke-miterlimit="10"/>
<path d="M11.4681 35.4041H30.4043M8.31204 32.248C6.57376 32.248 5.15601 33.6658 5.15601 35.4041C5.15601 37.1424 6.57376 38.5601 8.31204 38.5601C10.0503 38.5601 11.4681 37.1424 11.4681 35.4041C11.4681 33.6658 10.0503 32.248 8.31204 32.248ZM33.5604 32.248C31.8221 32.248 30.4043 33.6658 30.4043 35.4041C30.4043 37.1424 31.8221 38.5601 33.5604 38.5601C35.2986 38.5601 36.7164 37.1424 36.7164 35.4041C36.7164 33.6658 35.2986 32.248 33.5604 32.248Z" stroke="#212806" stroke-width="3" stroke-miterlimit="10"/>
</svg>
