<svg width="45" height="45" viewBox="0 0 45 45" fill="none" xmlns="http://www.w3.org/2000/svg">
<path d="M3 16.7578H42.3542M39.0747 42.994H6.27952C4.47322 42.994 3 41.5207 3 39.7144V10.1988C3 8.3925 4.47322 6.91928 6.27952 6.91928H39.0747C40.881 6.91928 42.3542 8.3925 42.3542 10.1988V39.7144C42.3542 41.5207 40.881 42.994 39.0747 42.994ZM9.55903 2V11.8386V2ZM35.7952 2V11.8386V2Z" stroke="#212806" stroke-width="3" stroke-miterlimit="10"/>
<path d="M14.4782 21.6777H17.7577V24.9573H14.4782V21.6777ZM21.0373 21.6777H24.3168V24.9573H21.0373V21.6777ZM27.5963 21.6777H30.8758V24.9573H27.5963V21.6777ZM34.1553 21.6777H37.4348V24.9573H34.1553V21.6777ZM14.4782 28.2368H17.7577V31.5163H14.4782V28.2368ZM7.91919 28.2368H11.1987V31.5163H7.91919V28.2368ZM21.0373 28.2368H24.3168V31.5163H21.0373V28.2368ZM27.5963 28.2368H30.8758V31.5163H27.5963V28.2368ZM14.4782 34.7958H17.7577V38.0753H14.4782V34.7958ZM7.91919 34.7958H11.1987V38.0753H7.91919V34.7958ZM21.0373 34.7958H24.3168V38.0753H21.0373V34.7958ZM34.1553 28.2368H37.4348V31.5163H34.1553V28.2368Z" fill="#191E04"/>
</svg>
