<svg width="181" height="171" viewBox="0 0 181 171" fill="none" xmlns="http://www.w3.org/2000/svg">
<path fill-rule="evenodd" clip-rule="evenodd" d="M48.0688 13.7431C83.4601 -4.33943 127.717 -7.11819 155.746 20.9502C185.246 50.4919 188.53 97.3251 167.542 133.385C148.337 166.38 107.351 176.104 69.7984 168.616C34.5743 161.591 5.744 135.541 0.77544 100.129C-4.26077 64.2348 15.6632 30.3 48.0688 13.7431Z" fill="#FFF9F0"/>
<path d="M106.162 79.6721L77.938 63.5859" stroke="#212806" stroke-width="3" stroke-linecap="round" stroke-linejoin="round"/>
<path d="M120.274 100.128V75.3325C120.273 74.2455 119.983 73.1778 119.432 72.2367C118.882 71.2955 118.091 70.514 117.138 69.9705L95.1861 57.5727C94.2326 57.0286 93.151 56.7422 92.0501 56.7422C90.9491 56.7422 89.8675 57.0286 88.9141 57.5727L66.962 69.9705C66.0095 70.514 65.2183 71.2955 64.6679 72.2367C64.1174 73.1778 63.8271 74.2455 63.826 75.3325V100.128C63.8271 101.215 64.1174 102.283 64.6679 103.224C65.2183 104.165 66.0095 104.947 66.962 105.49L88.9141 117.888C89.8675 118.432 90.9491 118.718 92.0501 118.718C93.151 118.718 94.2326 118.432 95.1861 117.888L117.138 105.49C118.091 104.947 118.882 104.165 119.432 103.224C119.983 102.283 120.273 101.215 120.274 100.128Z" stroke="#212806" stroke-width="3" stroke-linecap="round" stroke-linejoin="round"/>
<path d="M64.6727 72.1094L92.05 87.7616L119.427 72.1094" stroke="#212806" stroke-width="3" stroke-linecap="round" stroke-linejoin="round"/>
<path d="M92.0501 118.973V87.7305" stroke="#212806" stroke-width="3" stroke-linecap="round" stroke-linejoin="round"/>
</svg>
