<svg width="181" height="171" viewBox="0 0 181 171" fill="none" xmlns="http://www.w3.org/2000/svg">
<path fill-rule="evenodd" clip-rule="evenodd" d="M97.9743 170.723C58.6163 171.819 17.9082 155.409 4.92348 118.277C-8.74273 79.1954 8.41666 35.809 42.6269 12.4468C73.9299 -8.93007 114.698 -0.142577 145.015 22.6081C173.452 43.9482 188.018 79.6133 177.262 113.48C166.36 147.809 134.012 169.72 97.9743 170.723Z" fill="#FFF9F0"/>
<path d="M63.9949 104.77C61.3406 104.77 59.1758 102.606 59.1758 99.9525V66.228C59.1758 63.5744 61.3406 61.4102 63.9949 61.4102H104.957C106.482 61.4102 107.894 62.1253 108.816 63.3297L120.864 79.4016C121.485 80.2297 121.824 81.2459 121.824 82.281V99.9525C121.824 102.606 119.659 104.77 117.005 104.77H112.186" stroke="#212806" stroke-width="3" stroke-miterlimit="10"/>
<path d="M92.9096 62.0117V75.8629C92.9096 78.5164 95.0744 80.6807 97.7287 80.6807H121.824" stroke="#212806" stroke-width="3" stroke-miterlimit="10"/>
<path d="M73.6332 104.771H102.548M68.814 99.9531C66.1598 99.9531 63.9949 102.117 63.9949 104.771C63.9949 107.424 66.1598 109.589 68.814 109.589C71.4683 109.589 73.6332 107.424 73.6332 104.771C73.6332 102.117 71.4683 99.9531 68.814 99.9531ZM107.367 99.9531C104.713 99.9531 102.548 102.117 102.548 104.771C102.548 107.424 104.713 109.589 107.367 109.589C110.021 109.589 112.186 107.424 112.186 104.771C112.186 102.117 110.021 99.9531 107.367 99.9531Z" stroke="#212806" stroke-width="3" stroke-miterlimit="10"/>
</svg>
