<svg width="181" height="171" viewBox="0 0 181 171" fill="none" xmlns="http://www.w3.org/2000/svg">
<path fill-rule="evenodd" clip-rule="evenodd" d="M97.8247 170.909C58.394 171.931 17.6441 155.41 4.70703 118.178C-8.90902 78.9924 8.36417 35.5515 42.6805 12.2076C74.0807 -9.15248 114.905 -0.269362 145.233 22.585C173.681 44.0225 188.205 79.7873 177.365 113.702C166.377 148.079 133.929 169.973 97.8247 170.909Z" fill="#FFF9F0"/>
<path d="M71.8421 57.0156V70.6884M109.158 57.0156V70.6884M62.5132 77.5248H118.487M113.822 113.986H67.1777C64.6086 113.986 62.5132 111.938 62.5132 109.428V68.4096C62.5132 65.8994 64.6086 63.852 67.1777 63.852H113.822C116.391 63.852 118.487 65.8994 118.487 68.4096V109.428C118.487 111.938 116.391 113.986 113.822 113.986Z" stroke="#212806" stroke-width="3" stroke-miterlimit="10"/>
<path d="M78.8387 84.3633H83.5032V88.9209H78.8387V84.3633ZM88.1676 84.3633H92.8321V88.9209H88.1676V84.3633ZM97.4966 84.3633H102.161V88.9209H97.4966V84.3633ZM106.826 84.3633H111.49V88.9209H106.826V84.3633ZM78.8387 93.4785H83.5032V98.0361H78.8387V93.4785ZM69.5098 93.4785H74.1742V98.0361H69.5098V93.4785ZM88.1676 93.4785H92.8321V98.0361H88.1676V93.4785ZM97.4966 93.4785H102.161V98.0361H97.4966V93.4785ZM78.8387 102.594H83.5032V107.151H78.8387V102.594ZM69.5098 102.594H74.1742V107.151H69.5098V102.594ZM88.1676 102.594H92.8321V107.151H88.1676V102.594ZM106.826 93.4785H111.49V98.0361H106.826V93.4785Z" fill="#191E04"/>
</svg>
